#N canvas 768 67 368 325 10;
#X obj 100 126 vsl 25 100 0 1 0 1 empty empty 1 4 9 0 10 -262144 -260097
-1 7100 0;
#X obj 127 126 vsl 25 100 0 1 0 1 empty empty 2 4 9 0 10 -262144 -260097
-1 9900 0;
#X obj 154 126 vsl 25 100 0 1 0 1 empty empty 3 4 9 0 10 -262144 -260097
-1 7600 0;
#X obj 181 126 vsl 25 100 0 1 0 1 empty empty 4 4 9 0 10 -262144 -260097
-1 3600 0;
#X obj 103 100 hsl 101 25 110 999 0 1 empty empty frequency 40 8 0
10 -262144 -260097 -1 2700 0;
#X floatatom 108 105 5 0 0 0 - - -;
#X obj 34 68 inlet~;
#N canvas 97 192 633 397 test-signal-harmonics1234 0;
#X obj 143 219 osc~ 100;
#X obj 220 220 osc~ 200;
#X obj 298 219 osc~ 300;
#X obj 143 362 outlet~;
#X text 47 90 freq;
#X text 464 124 random phases;
#N canvas 0 22 359 215 random 0;
#X obj 29 33 inlet;
#X obj 105 72 random 100;
#X obj 190 71 random 100;
#X obj 105 119 / 100;
#X obj 190 117 / 100;
#X obj 29 72 random 100;
#X obj 29 119 / 100;
#X obj 29 159 outlet;
#X obj 105 157 outlet;
#X obj 190 155 outlet;
#X obj 266 71 random 100;
#X obj 266 117 / 100;
#X obj 266 155 outlet;
#X connect 0 0 5 0;
#X connect 0 0 1 0;
#X connect 0 0 2 0;
#X connect 0 0 10 0;
#X connect 1 0 3 0;
#X connect 2 0 4 0;
#X connect 3 0 8 0;
#X connect 4 0 9 0;
#X connect 5 0 6 0;
#X connect 6 0 7 0;
#X connect 10 0 11 0;
#X connect 11 0 12 0;
#X restore 468 70 pd random;
#X obj 220 259 *~ 1;
#X obj 298 261 *~ 1;
#X obj 143 260 *~ 1;
#X obj 164 72 clip 0 1;
#X obj 241 73 clip 0 1;
#X obj 319 71 clip 0 1;
#X obj 383 261 *~ 1;
#X obj 383 226 osc~ 400;
#X obj 468 43 loadbang;
#X floatatom 468 102 5 0 0 0 - - -;
#X obj 404 70 clip 0 1;
#X obj 220 184 *~ 2;
#X obj 298 182 *~ 3;
#X obj 383 181 *~ 4;
#X obj 49 40 inlet~;
#X obj 104 41 inlet;
#X obj 164 43 inlet;
#X obj 241 45 inlet;
#X obj 319 44 inlet;
#X msg 496 156 0;
#X obj 529 44 bng 15 250 50 0 empty empty empty 17 7 0 10 -262144 -1
-1;
#X obj 404 45 inlet;
#X obj 104 68 sig~ 0;
#X obj 143 304 *~ 0.25;
#X connect 0 0 9 0;
#X connect 1 0 7 0;
#X connect 2 0 8 0;
#X connect 6 0 0 1;
#X connect 6 0 16 0;
#X connect 6 1 1 1;
#X connect 6 2 2 1;
#X connect 6 3 14 1;
#X connect 7 0 30 0;
#X connect 8 0 30 0;
#X connect 9 0 30 0;
#X connect 10 0 9 1;
#X connect 11 0 7 1;
#X connect 12 0 8 1;
#X connect 13 0 30 0;
#X connect 14 0 13 0;
#X connect 15 0 6 0;
#X connect 17 0 13 1;
#X connect 18 0 1 0;
#X connect 19 0 2 0;
#X connect 20 0 14 0;
#X connect 21 0 0 0;
#X connect 21 0 19 0;
#X connect 21 0 20 0;
#X connect 21 0 18 0;
#X connect 22 0 29 0;
#X connect 23 0 10 0;
#X connect 24 0 11 0;
#X connect 25 0 12 0;
#X connect 26 0 0 1;
#X connect 26 0 1 1;
#X connect 26 0 2 1;
#X connect 26 0 14 1;
#X connect 27 0 6 0;
#X connect 28 0 17 0;
#X connect 29 0 19 0;
#X connect 29 0 0 0;
#X connect 29 0 20 0;
#X connect 29 0 18 0;
#X connect 30 0 3 0;
#X restore 34 244 pd test-signal-harmonics1234;
#X obj 34 274 outlet~;
#X text 131 180 harmonics;
#X text 34 32 abstraction used in testpatches for [helmholtz~];
#X connect 0 0 7 2;
#X connect 1 0 7 3;
#X connect 2 0 7 4;
#X connect 3 0 7 5;
#X connect 4 0 5 0;
#X connect 4 0 7 1;
#X connect 6 0 7 0;
#X connect 7 0 8 0;
#X coords 0 -1 1 1 106 129 2 100 100;
