#N canvas 612 104 431 613 10;
#X obj 137 247 helmholtz~ 512;
#N canvas 719 119 246 263 timer 0;
#X obj 37 33 inlet;
#X obj 184 32 inlet;
#X obj 37 59 t b b;
#X obj 151 213 print;
#X obj 151 180 spigot;
#X obj 37 212 outlet;
#X obj 37 89 timer;
#X obj 85 60 samplerate~;
#X obj 37 156 /;
#X obj 85 84 t b f;
#X obj 85 131 /;
#X msg 85 107 1000;
#X obj 85 33 loadbang;
#X connect 0 0 2 0;
#X connect 1 0 4 1;
#X connect 2 0 6 0;
#X connect 2 1 6 1;
#X connect 4 0 3 0;
#X connect 6 0 8 0;
#X connect 7 0 9 0;
#X connect 8 0 5 0;
#X connect 8 0 4 0;
#X connect 9 0 11 0;
#X connect 9 1 10 1;
#X connect 10 0 8 1;
#X connect 11 0 10 0;
#X connect 12 0 7 0;
#X restore 218 275 pd timer;
#X floatatom 218 315 5 0 0 0 - - -;
#X obj 263 248 tgl 15 0 empty empty empty 17 7 0 10 -262144 -1 -1 0
1;
#X text 282 246 print;
#X obj 177 378 output~;
#N canvas 0 22 270 250 resynth 0;
#X obj 31 115 osc~;
#X obj 31 86 line~;
#X msg 31 58 \$1 5;
#X obj 31 23 inlet;
#X obj 31 193 outlet~;
#X connect 0 0 4 0;
#X connect 1 0 0 0;
#X connect 2 0 1 0;
#X connect 3 0 2 0;
#X restore 177 347 pd resynth;
#X msg 164 195 overlap 1;
#X msg 164 221 overlap 2;
#X text 253 314 samples;
#X text 224 295 response interval;
#X obj 60 247 output~;
#X text 59 295 original;
#X obj 60 216 delay~ 512 512;
#X obj 137 -1 osc~ 400;
#X obj 137 166 +~;
#X obj 152 88 osc~ 400;
#X obj 155 35 hsl 128 15 300 500 0 1 empty empty freq 20 8 0 10 -262144
-260097 -1 1200 0;
#X floatatom 163 60 5 0 0 0 - - -;
#X floatatom 183 275 5 0 0 0 - - -;
#X obj 152 140 *~ 0;
#X obj 176 118 hsl 128 15 0 1 0 1 empty empty level 20 8 0 10 -262144
-260097 -1 2800 0;
#X floatatom 186 140 5 0 0 0 - - -;
#N canvas 700 55 487 526 helmholtz~ 0;
#X obj 27 479 pddplink http://miracle.otago.ac.nz/tartini/papers/A_Smarter_Way_to_Find_Pitch.pdf
;
#X obj 27 433 pddplink http://miracle.otago.ac.nz/tartini/papers/Philip_McLeod_PhD.pdf
;
#X text 27 33 Pitch estimation with SNAC and parabolic interpolation
is accurate up to ~0.1 Hz.;
#X text 27 77 About 85% of the SNAC function length is useful for analysis.
The right tail 15% is too instable and may trigger false results \,
so this part is set to zero and ignored.;
#X text 26 401 Find Philip McLeod's thesis with detailed description
of the SNAC function:;
#X text 27 461 Find an article on pitch detection by Philip McLeod
here:;
#X text 28 145 With the large part of the function being useful \,
[helmholtz~] can find period lengths from ~1.2 times the analysis frame.
An example: with framelength 1024 and SR 44100 \, the fundamental frequency
of the frame is ~43 Hz \, while [helmholtz~] can find pitch starting
from ~50 Hz.;
#X text 27 228 There is also an upper bound for detection \, caused
by the fact that narrow \, pulse-like waveforms have too little discrete
samples to always describe the actual maximum of a peak. In [helmholtz~]
\, parabolic interpolation is used to find the peak maxima before comparing
them. This way \, pitches up to 2000 Hz can be detected \, provided
they have not too rich harmonics (use a filter otherwise).;
#X text 28 342 The default maximum for pitch reporting by [helmholt~]
is 1000 Hz \, but you can set the maximum at will between 0 and 2000
Hz with message 'maxfreq'.;
#X restore 55 516 pd helmholtz~ info;
#X text 53 556 Katja Vetter Feb 2012;
#X text 50 440 [helmholtz~] can not resolve multiple pitches in a signal.
The question is \, how does it react to signals with inharmonic components?
Compare input and resynthesized sound by ear to find out.;
#X connect 0 1 6 0;
#X connect 0 1 19 0;
#X connect 0 2 1 0;
#X connect 1 0 2 0;
#X connect 3 0 1 1;
#X connect 6 0 5 0;
#X connect 6 0 5 1;
#X connect 7 0 0 0;
#X connect 8 0 0 0;
#X connect 13 0 11 0;
#X connect 13 0 11 1;
#X connect 14 0 15 0;
#X connect 15 0 0 0;
#X connect 15 0 13 0;
#X connect 16 0 20 0;
#X connect 17 0 16 0;
#X connect 17 0 18 0;
#X connect 20 0 15 1;
#X connect 21 0 20 1;
#X connect 21 0 22 0;
