#N canvas 221 29 718 640 10;
#X obj 221 -41 hsl 128 15 0 20 0 1 empty empty modulation-speed 20
8 0 10 -262144 -260097 -1 6000 0;
#X floatatom 230 -18 5 0 0 0 - - -;
#X obj 104 190 helmholtz~ 512;
#N canvas 719 119 246 263 timer 0;
#X obj 37 33 inlet;
#X obj 184 32 inlet;
#X obj 37 59 t b b;
#X obj 151 213 print;
#X obj 151 180 spigot;
#X obj 37 212 outlet;
#X obj 37 89 timer;
#X obj 85 60 samplerate~;
#X obj 37 156 /;
#X obj 85 84 t b f;
#X obj 85 131 /;
#X msg 85 107 1000;
#X obj 85 33 loadbang;
#X connect 0 0 2 0;
#X connect 1 0 4 1;
#X connect 2 0 6 0;
#X connect 2 1 6 1;
#X connect 4 0 3 0;
#X connect 6 0 8 0;
#X connect 7 0 9 0;
#X connect 8 0 5 0;
#X connect 8 0 4 0;
#X connect 9 0 11 0;
#X connect 9 1 10 1;
#X connect 10 0 8 1;
#X connect 11 0 10 0;
#X connect 12 0 7 0;
#X restore 185 218 pd timer;
#X floatatom 185 258 5 0 0 0 - - -;
#X obj 230 191 tgl 15 0 empty empty empty 17 7 0 10 -262144 -1 -1 1
1;
#X text 249 189 print;
#X obj 104 248 output~;
#N canvas 0 22 270 250 resynth 0;
#X obj 31 115 osc~;
#X obj 31 86 line~;
#X msg 31 58 \$1 5;
#X obj 31 23 inlet;
#X obj 31 193 outlet~;
#X obj 160 22 inlet~;
#X obj 160 60 delay~ 512 512;
#X obj 31 155 *~;
#X connect 0 0 7 0;
#X connect 1 0 0 0;
#X connect 2 0 1 0;
#X connect 3 0 2 0;
#X connect 5 0 6 0;
#X connect 6 0 7 1;
#X connect 7 0 4 0;
#X restore 104 217 pd resynth;
#X obj 242 28 hsl 128 15 0 0.5 0 1 empty empty modulation-depth 20
8 0 10 -262144 -260097 -1 5800 0;
#X floatatom 253 57 5 0 0 0 - - -;
#X msg 131 138 overlap 1;
#X msg 131 164 overlap 2;
#X text 220 257 samples;
#X text 191 238 response interval;
#X obj 27 190 output~;
#X text 26 238 original;
#X obj 27 159 delay~ 512 512;
#X obj 218 6 osc~ 1;
#X obj 218 56 *~ 0;
#X obj 104 96 *~;
#X obj 218 79 +~ 0.5;
#X obj 489 178 output~;
#X obj 507 -64 hsl 128 15 0 40 0 1 empty empty slope 20 8 0 10 -262144
-260097 -1 11900 0;
#X obj 411 120 output~;
#X obj 489 17 *~;
#N canvas 954 394 259 299 amplitude-ramp 0;
#X obj 49 53 metro 2000;
#X obj 147 107 delay 1000;
#X obj 49 29 tgl 15 1 empty empty empty 17 7 0 10 -262144 -1 -1 1 1
;
#X obj 174 28 inlet;
#X obj 49 140 f 500;
#X obj 147 142 f 500;
#X obj 49 250 outlet~;
#X obj 49 206 line~;
#X msg 49 167 0.1 \, 1 \$1;
#X msg 147 168 1 \, 0.1 \$1;
#X connect 0 0 1 0;
#X connect 0 0 4 0;
#X connect 1 0 5 0;
#X connect 2 0 0 0;
#X connect 3 0 4 1;
#X connect 3 0 5 1;
#X connect 4 0 8 0;
#X connect 5 0 9 0;
#X connect 7 0 6 0;
#X connect 8 0 7 0;
#X connect 9 0 7 0;
#X restore 504 -16 pd amplitude-ramp;
#X floatatom 513 -41 5 0 0 0 - - -;
#X text 549 -41 ms;
#X msg 507 61 overlap 1;
#X msg 507 87 overlap 2;
#N canvas 231 117 204 206 sweep 0;
#X obj 39 109 osc~ 400;
#X obj 39 86 +~ 400;
#X obj 39 61 *~ 200;
#X obj 39 140 outlet~;
#X obj 39 34 osc~ 0.1;
#X connect 0 0 3 0;
#X connect 1 0 0 0;
#X connect 2 0 1 0;
#X connect 4 0 2 0;
#X restore 489 -93 pd sweep;
#X obj 489 121 helmholtz~ 512;
#N canvas 874 446 271 215 resynth 0;
#X obj 31 115 osc~;
#X obj 31 178 outlet~;
#X obj 31 23 inlet;
#X obj 31 84 line~;
#X msg 31 56 \$1 5;
#X obj 128 25 inlet~;
#X obj 128 64 delay~ 512 512;
#X obj 31 147 *~;
#X connect 0 0 7 0;
#X connect 2 0 4 0;
#X connect 3 0 0 0;
#X connect 4 0 3 0;
#X connect 5 0 6 0;
#X connect 6 0 7 1;
#X connect 7 0 1 0;
#X restore 489 147 pd resynth;
#X text 410 168 original;
#N canvas 719 119 246 263 timer 0;
#X obj 37 33 inlet;
#X obj 184 32 inlet;
#X obj 37 59 t b b;
#X obj 151 213 print;
#X obj 151 180 spigot;
#X obj 37 212 outlet;
#X obj 37 89 timer;
#X obj 85 60 samplerate~;
#X obj 37 156 /;
#X obj 85 84 t b f;
#X obj 85 131 /;
#X msg 85 107 1000;
#X obj 85 33 loadbang;
#X connect 0 0 2 0;
#X connect 1 0 4 1;
#X connect 2 0 6 0;
#X connect 2 1 6 1;
#X connect 4 0 3 0;
#X connect 6 0 8 0;
#X connect 7 0 9 0;
#X connect 8 0 5 0;
#X connect 8 0 4 0;
#X connect 9 0 11 0;
#X connect 9 1 10 1;
#X connect 10 0 8 1;
#X connect 11 0 10 0;
#X connect 12 0 7 0;
#X restore 570 148 pd timer;
#X floatatom 570 188 5 0 0 0 - - -;
#X obj 615 121 tgl 15 0 empty empty empty 17 7 0 10 -262144 -1 -1 0
1;
#X text 634 119 print;
#X text 605 187 samples;
#X text 575 167 response interval;
#X text 439 -114 sweep with amplitude jumps / ramps;
#X obj 411 75 delay~ 512 512;
#X text 102 382 How many pitch reports does [helmholtz~] skip in the
case of signal dynamics? This can be judged from the response interval
in number of samples. Ideally \, the interval is framesize/overlap.
The values can be printed in Pd window \, to check how many frames
are skipped in succesion. Framesizes are initialized to 512 samples
in the objects in this patch.;
#N canvas 700 55 487 526 helmholtz~ 0;
#X obj 27 479 pddplink http://miracle.otago.ac.nz/tartini/papers/A_Smarter_Way_to_Find_Pitch.pdf
;
#X obj 27 433 pddplink http://miracle.otago.ac.nz/tartini/papers/Philip_McLeod_PhD.pdf
;
#X text 27 33 Pitch estimation with SNAC and parabolic interpolation
is accurate up to ~0.1 Hz.;
#X text 27 77 About 85% of the SNAC function length is useful for analysis.
The right tail 15% is too instable and may trigger false results \,
so this part is set to zero and ignored.;
#X text 26 401 Find Philip McLeod's thesis with detailed description
of the SNAC function:;
#X text 27 461 Find an article on pitch detection by Philip McLeod
here:;
#X text 28 145 With the large part of the function being useful \,
[helmholtz~] can find period lengths from ~1.2 times the analysis frame.
An example: with framelength 1024 and SR 44100 \, the fundamental frequency
of the frame is ~43 Hz \, while [helmholtz~] can find pitch starting
from ~50 Hz.;
#X text 27 228 There is also an upper bound for detection \, caused
by the fact that narrow \, pulse-like waveforms have too little discrete
samples to always describe the actual maximum of a peak. In [helmholtz~]
\, parabolic interpolation is used to find the peak maxima before comparing
them. This way \, pitches up to 2000 Hz can be detected \, provided
they have not too rich harmonics (use a filter otherwise).;
#X text 28 342 The default maximum for pitch reporting by [helmholt~]
is 1000 Hz \, but you can set the maximum at will between 0 and 2000
Hz with message 'maxfreq'.;
#X restore 536 272 pd helmholtz~ info;
#X text 534 312 Katja Vetter Feb 2012;
#X text 102 329 Does [helmholtz~] report incorrect pitch in the case
of dynamic input (amplitude modulation \, amplitude jumps)? This must
be judged by ear from the resynthesis.;
#X text 102 307 amplitude modulation;
#X obj 104 -69 harmonics4;
#X msg 558 390 \; pd dsp 1;
#X msg 558 429 \; pd dsp 0;
#X obj 558 363 loadbang;
#X text 40 -111 sinusoidal amplitude modulation;
#X connect 0 0 1 0;
#X connect 0 0 18 0;
#X connect 2 1 8 0;
#X connect 2 2 3 0;
#X connect 3 0 4 0;
#X connect 5 0 3 1;
#X connect 8 0 7 0;
#X connect 8 0 7 1;
#X connect 9 0 10 0;
#X connect 9 0 19 1;
#X connect 11 0 2 0;
#X connect 12 0 2 0;
#X connect 17 0 15 0;
#X connect 17 0 15 1;
#X connect 18 0 19 0;
#X connect 19 0 21 0;
#X connect 20 0 2 0;
#X connect 20 0 17 0;
#X connect 21 0 20 1;
#X connect 21 0 8 1;
#X connect 23 0 26 0;
#X connect 23 0 27 0;
#X connect 25 0 32 0;
#X connect 25 0 42 0;
#X connect 26 0 25 1;
#X connect 26 0 33 1;
#X connect 29 0 32 0;
#X connect 30 0 32 0;
#X connect 31 0 25 0;
#X connect 32 1 33 0;
#X connect 32 2 35 0;
#X connect 33 0 22 0;
#X connect 33 0 22 1;
#X connect 35 0 36 0;
#X connect 37 0 35 1;
#X connect 42 0 24 0;
#X connect 42 0 24 1;
#X connect 48 0 20 0;
#X connect 51 0 49 0;
