#N canvas 523 71 414 557 10;
#X msg 274 264 \; pd dsp 1;
#X msg 273 305 \; pd dsp 0;
#X obj 274 229 loadbang;
#X obj 34 -30 adc~;
#N canvas 0 22 263 214 filters 0;
#X obj 47 41 inlet~;
#X obj 47 176 outlet~;
#X text 103 79 DC filter;
#X text 140 140 sibilant filter;
#X obj 47 140 lp6_cheb~ 1000;
#X obj 125 41 inlet;
#X text 165 40 freq;
#X obj 47 79 hip~ 160;
#X connect 0 0 7 0;
#X connect 4 0 1 0;
#X connect 5 0 4 1;
#X connect 7 0 4 0;
#X restore 34 42 pd filters;
#X obj 91 -1 nbx 4 14 1000 3000 1 1 empty empty empty 0 -8 0 10 -262144
-1 -1 2000 256;
#X text 102 17 lo pass filter freq;
#X obj 34 -2 +~;
#X obj 34 295 output~;
#N canvas 714 80 371 245 synthesis 0;
#X obj 28 27 inlet;
#X obj 124 101 envrms~;
#X obj 124 158 line~;
#X obj 28 149 osc~;
#X obj 28 109 line~;
#X obj 28 176 *~;
#X obj 28 210 outlet~;
#X msg 28 78 \$1 2;
#X obj 124 23 adc~;
#X obj 124 51 +~;
#X obj 124 77 delay~ 2048 1024;
#X msg 124 129 \$1 5;
#X obj 217 21 r \$0-reduced-framesize;
#X connect 0 0 7 0;
#X connect 1 0 11 0;
#X connect 2 0 5 1;
#X connect 3 0 5 0;
#X connect 4 0 3 0;
#X connect 5 0 6 0;
#X connect 7 0 4 0;
#X connect 8 0 9 0;
#X connect 8 1 9 1;
#X connect 9 0 10 0;
#X connect 10 0 1 0;
#X connect 11 0 2 0;
#X connect 12 0 10 1;
#X restore 34 253 pd synthesis;
#X floatatom 42 172 5 0 0 0 - - -;
#X floatatom 152 172 5 0 0 0 - - -;
#X floatatom 271 172 5 0 0 0 - - -;
#X text 307 174 SR;
#X text 189 174 fidelity;
#X msg 164 93 0.5;
#X msg 152 69 0.25;
#X obj 152 43 loadbang;
#X msg 174 119 1;
#X text 190 69 resample factor;
#X text 77 173 pitch;
#X text 30 358 [helmholtz~] can work efficiently in downsampled time.
It does not need the full spectrum \, only fundamental frequencies.
Make sure the input signal is properly filtered before downsampling.
Analysis frame size must be set accordingly. For example \, if you
have 1024 samples at regular samplerate \, set 256 samples at resample
factor 0.25. In this patch it is done automatically.;
#X text 32 469 Katja Vetter Feb 2012;
#N canvas 700 55 487 526 helmholtz~ 0;
#X obj 27 479 pddplink http://miracle.otago.ac.nz/tartini/papers/A_Smarter_Way_to_Find_Pitch.pdf
;
#X obj 27 433 pddplink http://miracle.otago.ac.nz/tartini/papers/Philip_McLeod_PhD.pdf
;
#X text 27 33 Pitch estimation with SNAC and parabolic interpolation
is accurate up to ~0.1 Hz.;
#X text 27 77 About 85% of the SNAC function length is useful for analysis.
The right tail 15% is too instable and may trigger false results \,
so this part is set to zero and ignored.;
#X text 26 401 Find Philip McLeod's thesis with detailed description
of the SNAC function:;
#X text 27 461 Find an article on pitch detection by Philip McLeod
here:;
#X text 28 145 With the large part of the function being useful \,
[helmholtz~] can find period lengths from ~1.2 times the analysis frame.
An example: with framelength 1024 and SR 44100 \, the fundamental frequency
of the frame is ~43 Hz \, while [helmholtz~] can find pitch starting
from ~50 Hz.;
#X text 27 228 There is also an upper bound for detection \, caused
by the fact that narrow \, pulse-like waveforms have too little discrete
samples to always describe the actual maximum of a peak. In [helmholtz~]
\, parabolic interpolation is used to find the peak maxima before comparing
them. This way \, pitches up to 2000 Hz can be detected \, provided
they have not too rich harmonics (use a filter otherwise).;
#X text 28 342 The default maximum for pitch reporting by [helmholt~]
is 1000 Hz \, but you can set the maximum at will between 0 and 2000
Hz with message 'maxfreq'.;
#X restore 237 466 pd helmholtz~ info;
#N canvas 65 104 668 600 user-parameters 0;
#X obj 45 139 vradio 15 1 1 4 empty empty empty 0 -8 0 10 -262144 -260097
-1 0;
#N canvas 0 22 167 265 overlap 0;
#X obj 29 35 inlet;
#X obj 29 195 outlet;
#X obj 29 130 pow;
#X obj 29 70 t b f;
#X msg 29 102 2;
#X msg 29 162 overlap \$1;
#X connect 0 0 3 0;
#X connect 2 0 5 0;
#X connect 3 0 4 0;
#X connect 3 1 2 1;
#X connect 4 0 2 0;
#X connect 5 0 1 0;
#X restore 45 210 pd overlap;
#N canvas 635 352 284 292 framesize 0;
#X obj 29 14 inlet;
#X obj 29 242 outlet;
#X obj 29 119 pow;
#X obj 29 64 t b f;
#X msg 29 91 2;
#X msg 29 198 framesize \$1;
#X obj 29 41 + 8;
#X obj 43 173 s \$0-framesize;
#X floatatom 53 144 5 0 0 0 - - -;
#X obj 159 163 samplerate~;
#X obj 159 136 t b f;
#X obj 159 191 /;
#X obj 159 245 outlet;
#X obj 159 219 * 1.2;
#X connect 0 0 6 0;
#X connect 2 0 5 0;
#X connect 2 0 7 0;
#X connect 2 0 8 0;
#X connect 2 0 10 0;
#X connect 3 0 4 0;
#X connect 3 1 2 1;
#X connect 4 0 2 0;
#X connect 5 0 1 0;
#X connect 6 0 3 0;
#X connect 9 0 11 0;
#X connect 10 0 9 0;
#X connect 10 1 11 1;
#X connect 11 0 13 0;
#X connect 13 0 12 0;
#X restore 29 60 pd framesize;
#X obj 29 -9 vradio 15 1 1 4 empty empty empty 0 -8 0 10 -262144 -260097
-1 2;
#X text 50 -9 256;
#X text 50 7 512;
#X text 49 37 2048;
#X text 67 154 2;
#X text 67 186 8;
#X text 67 171 4;
#X obj 29 501 outlet;
#X floatatom 98 90 5 0 0 0 - - -;
#X text 49 22 1024 (default);
#X text 67 138 1 (default);
#X text 292 84 Overlapping analysis frames can be used for a finer
rate of pitch messages. This may be useful in the case of longer analysis
frames. Note that overlap multiplies the object's CPU load.;
#X msg 62 292 bias \$1;
#X obj 65 242 hsl 100 15 0 1 0 1 empty empty empty -2 -8 0 10 -262144
-260097 -1 2100 0;
#X floatatom 71 266 5 0 0 0 - - -;
#X text 290 152 Bias (range 0 - 1) is used to favour the first peaks
found in the SNAC function. If bias is set to a higher level \, you
are more likely to experience upper octave jumps. If bias is set to
a low level \, low octave jumps are more likely to happen. Set bias
according to your input material. For example \, for a sound type with
weak fundamental \, bias is better not set too high. Default is 0.2.
;
#X obj 64 325 hsl 100 15 0 1 0 1 empty empty empty -2 -8 0 10 -262144
-260097 -1 9400 0;
#X floatatom 70 349 5 0 0 0 - - -;
#X msg 61 375 fidelity \$1;
#X text 290 259 Fidelity (range 0 - 1 ) determines the fidelity threshold
required for new pitch information to get through. Fidelity is an indication
of how periodic a sound is (as opposed to noisy \, not periodic). Default
is 0.95.;
#X text 292 -9 Analysis framesize determines the lowest pitch which
can be detected \, corresponding to a period ~1.2 times the framesize.
Framesize also determines latency of the pitch info. Note that reported
pitch is the average pitch of an analysis frame. Framesize is always
a power of two \, because FFT is used for efficiency.;
#X text 93 110 lowest detectable pitch (Hz);
#X obj 65 409 hsl 100 15 0 2000 0 1 empty empty empty -2 -8 0 10 -262144
-260097 -1 5100 0;
#X floatatom 72 431 5 0 0 0 - - -;
#X msg 62 459 maxfreq \$1;
#X text 291 330 Maxfreq is the maximum frequency which will possibly
be reported by [helmholtz~]. Default is 2000 Set it lower if you experience
harmonic interference components such as from cellphones.;
#X connect 0 0 1 0;
#X connect 1 0 10 0;
#X connect 2 0 10 0;
#X connect 2 1 11 0;
#X connect 3 0 2 0;
#X connect 15 0 10 0;
#X connect 16 0 15 0;
#X connect 16 0 17 0;
#X connect 19 0 21 0;
#X connect 19 0 20 0;
#X connect 21 0 10 0;
#X connect 25 0 27 0;
#X connect 25 0 26 0;
#X connect 27 0 10 0;
#X restore 271 115 pd user-parameters;
#N canvas 71 177 398 282 downsample--------------------------- 0;
#X obj 29 38 inlet~;
#X obj 57 243 outlet;
#X obj 107 244 outlet;
#X obj 251 180 samplerate~;
#X floatatom 273 216 5 0 0 0 - - -;
#X obj 251 155 bng 15 250 50 0 empty empty empty 17 7 0 10 -262144
-1 -1;
#X obj 170 99 block~ 64 1 0.25;
#X obj 170 38 inlet;
#X obj 251 244 outlet;
#X obj 272 153 loadbang;
#X msg 43 154 framesize \$1;
#X msg 170 69 set 64 1 \$1;
#X obj 43 81 * 1024;
#X obj 229 38 inlet;
#X text 275 37 user parameters;
#X obj 29 185 helmholtz~;
#X obj 52 128 s \$0-reduced-framesize;
#X floatatom 61 105 5 0 0 0 - - -;
#X connect 0 0 15 0;
#X connect 3 0 4 0;
#X connect 3 0 8 0;
#X connect 5 0 3 0;
#X connect 7 0 11 0;
#X connect 7 0 5 0;
#X connect 7 0 12 0;
#X connect 9 0 3 0;
#X connect 10 0 15 0;
#X connect 11 0 6 0;
#X connect 12 0 10 0;
#X connect 12 0 16 0;
#X connect 12 0 17 0;
#X connect 13 0 15 0;
#X connect 15 1 1 0;
#X connect 15 2 2 0;
#X restore 34 145 pd downsample---------------------------;
#N canvas 572 350 426 294 noise 0;
#X obj 23 30 inlet~;
#X obj 23 156 outlet~;
#X obj 74 30 noise~;
#X obj 122 30 hsl 128 15 40 60 0 1 empty empty deciBel 20 8 0 10 -262144
-260097 -1 6300 0;
#X floatatom 132 114 6 0 0 0 - - -;
#X obj 74 113 *~ 0.003;
#X obj 119 79 dbtorms;
#X floatatom 128 55 5 0 0 0 - - -;
#X text 21 199 Addition of a tiny bit white noise helps to reduce unwanted
pitch triggers at low sound levels \, as caused by hum \, interference
\, or coloured noise.;
#X connect 0 0 1 0;
#X connect 2 0 5 0;
#X connect 3 0 6 0;
#X connect 3 0 7 0;
#X connect 5 0 1 0;
#X connect 6 0 4 0;
#X connect 6 0 5 1;
#X restore 34 82 pd noise;
#X connect 2 0 0 0;
#X connect 3 0 7 0;
#X connect 3 1 7 1;
#X connect 4 0 26 0;
#X connect 5 0 4 1;
#X connect 7 0 4 0;
#X connect 9 0 8 0;
#X connect 9 0 8 1;
#X connect 15 0 25 1;
#X connect 16 0 25 1;
#X connect 17 0 16 0;
#X connect 18 0 25 1;
#X connect 24 0 25 2;
#X connect 25 0 9 0;
#X connect 25 0 10 0;
#X connect 25 1 11 0;
#X connect 25 2 12 0;
#X connect 26 0 25 0;
