#N canvas 108 23 635 640 10;
#X msg 45 102 set 64 1 \$1;
#X msg 45 36 0.25;
#X msg 87 36 0.5;
#X msg 125 36 1;
#X obj 371 97 nbx 5 14 60 1000 0 1 empty empty empty 0 -8 0 10 -262144
-1 -1 387.27 256;
#X obj 43 180 osc~ 300.2;
#X text 158 36 resampling factor;
#X obj 161 105 samplerate~;
#X obj 45 68 f;
#X floatatom 161 130 5 0 0 0 - - -;
#X obj 161 85 bng 15 250 50 0 empty empty empty 17 7 0 10 -262144 -1
-1;
#X obj 67 216 helmholtz~;
#X obj 66 258 helmholtz~;
#X obj 65 290 helmholtz~;
#X obj 66 323 helmholtz~;
#X obj 65 355 helmholtz~;
#X floatatom 95 238 4 0 0 0 - - -;
#X obj 159 180 osc~ 300.2;
#X obj 183 216 helmholtz~;
#X obj 182 258 helmholtz~;
#X obj 181 290 helmholtz~;
#X obj 182 323 helmholtz~;
#X obj 181 355 helmholtz~;
#X obj 279 180 osc~ 300.2;
#X obj 303 216 helmholtz~;
#X obj 302 258 helmholtz~;
#X obj 301 290 helmholtz~;
#X obj 302 323 helmholtz~;
#X obj 301 355 helmholtz~;
#X obj 391 178 osc~ 300.2;
#X obj 415 214 helmholtz~;
#X obj 414 256 helmholtz~;
#X obj 413 288 helmholtz~;
#X obj 414 321 helmholtz~;
#X obj 413 353 helmholtz~;
#X obj 511 178 osc~ 300.2;
#X obj 535 214 helmholtz~;
#X obj 534 256 helmholtz~;
#X obj 533 288 helmholtz~;
#X obj 534 321 helmholtz~;
#X obj 533 353 helmholtz~;
#X text 472 95 50 [helmholtz~] objects;
#X obj 50 400 osc~ 300.2;
#X obj 74 436 helmholtz~;
#X obj 73 478 helmholtz~;
#X obj 72 510 helmholtz~;
#X obj 73 543 helmholtz~;
#X obj 72 575 helmholtz~;
#X obj 166 400 osc~ 300.2;
#X obj 190 436 helmholtz~;
#X obj 189 478 helmholtz~;
#X obj 188 510 helmholtz~;
#X obj 189 543 helmholtz~;
#X obj 188 575 helmholtz~;
#X obj 286 400 osc~ 300.2;
#X obj 310 436 helmholtz~;
#X obj 309 478 helmholtz~;
#X obj 308 510 helmholtz~;
#X obj 309 543 helmholtz~;
#X obj 308 575 helmholtz~;
#X obj 398 398 osc~ 300.2;
#X obj 422 434 helmholtz~;
#X obj 421 476 helmholtz~;
#X obj 420 508 helmholtz~;
#X obj 421 541 helmholtz~;
#X obj 420 573 helmholtz~;
#X obj 518 398 osc~ 300.2;
#X obj 542 434 helmholtz~;
#X obj 541 476 helmholtz~;
#X obj 540 508 helmholtz~;
#X obj 541 541 helmholtz~;
#X obj 540 573 helmholtz~;
#X obj 45 129 block~ 128 1 1;
#X text 370 75 freq;
#X connect 0 0 72 0;
#X connect 1 0 8 0;
#X connect 2 0 8 0;
#X connect 3 0 8 0;
#X connect 4 0 5 0;
#X connect 4 0 17 0;
#X connect 4 0 23 0;
#X connect 4 0 29 0;
#X connect 4 0 35 0;
#X connect 4 0 42 0;
#X connect 4 0 48 0;
#X connect 4 0 54 0;
#X connect 4 0 60 0;
#X connect 4 0 66 0;
#X connect 5 0 11 0;
#X connect 5 0 12 0;
#X connect 5 0 13 0;
#X connect 5 0 14 0;
#X connect 5 0 15 0;
#X connect 7 0 9 0;
#X connect 8 0 0 0;
#X connect 8 0 10 0;
#X connect 10 0 7 0;
#X connect 11 1 16 0;
#X connect 17 0 18 0;
#X connect 17 0 19 0;
#X connect 17 0 20 0;
#X connect 17 0 21 0;
#X connect 17 0 22 0;
#X connect 23 0 24 0;
#X connect 23 0 25 0;
#X connect 23 0 26 0;
#X connect 23 0 27 0;
#X connect 23 0 28 0;
#X connect 29 0 30 0;
#X connect 29 0 31 0;
#X connect 29 0 32 0;
#X connect 29 0 33 0;
#X connect 29 0 34 0;
#X connect 35 0 36 0;
#X connect 35 0 37 0;
#X connect 35 0 38 0;
#X connect 35 0 39 0;
#X connect 35 0 40 0;
#X connect 42 0 43 0;
#X connect 42 0 44 0;
#X connect 42 0 45 0;
#X connect 42 0 46 0;
#X connect 42 0 47 0;
#X connect 48 0 49 0;
#X connect 48 0 50 0;
#X connect 48 0 51 0;
#X connect 48 0 52 0;
#X connect 48 0 53 0;
#X connect 54 0 55 0;
#X connect 54 0 56 0;
#X connect 54 0 57 0;
#X connect 54 0 58 0;
#X connect 54 0 59 0;
#X connect 60 0 61 0;
#X connect 60 0 62 0;
#X connect 60 0 63 0;
#X connect 60 0 64 0;
#X connect 60 0 65 0;
#X connect 66 0 67 0;
#X connect 66 0 68 0;
#X connect 66 0 69 0;
#X connect 66 0 70 0;
#X connect 66 0 71 0;
