#N canvas 2 45 672 535 10;
#X obj 398 74 adc~;
#N canvas 2 45 672 535 formantTracker 1;
#X obj 222 -179 loadbang;
#X obj 100 -271 r \$0-pitch;
#X obj 224 -203 bng 15 250 50 0 empty empty empty 17 7 0 10 -262144
-1 -1;
#X obj -31 -266 inlet fidelity;
#X obj 222 -135 spigot;
#X floatatom 188 -261 5 0 0 0 - - -, f 5;
#X floatatom 188 -198 5 0 0 0 - - -, f 5;
#X obj 78 -356 inlet~ voc;
#X obj 92 522 outlet formant;
#X obj 77 -155 hp4_butt~ 187 0;
#X obj 65 385 f;
#X obj 104 95 t b f b f f f f;
#X obj 81 151 mavg 8;
#X obj 279 -94 + 1;
#X obj 426 -188 r onset-\$0;
#X obj 316 -144 bng 15 250 50 0 empty empty empty 17 7 0 10 -262144
-1 -1;
#X obj 307 -94 f;
#X obj 37 57 spigot;
#X obj 80 248 tID_std;
#X text 90 384 let trough if close to the avg;
#X text 135 318 compare the avarage with the proposed;
#X obj 83 222 pack;
#X obj 97 57 spigot;
#X obj 347 -72 moses 4;
#X msg 362 -22 4;
#X obj 130 31 > 4;
#X obj 70 31 < 5;
#X obj 222 -157 metro 3;
#X obj 27 237 spigot;
#X obj 79 276 moses 33;
#X msg 426 -166 1;
#X obj 76 -89 specCentroid~ 512;
#X obj 332 -228 > 0.95;
#X text 338 -99 count nr of values;
#X obj 88 -60 r \$0-pitch;
#X obj 60 -34 moses;
#X obj 105 -207 * 1;
#X floatatom 60 -12 5 0 0 0 - - -, f 5;
#X floatatom 146 293 5 0 0 0 - - -, f 5;
#X floatatom 152 233 5 0 0 0 - - -, f 5;
#X obj 58 479 mavg 3;
#X floatatom 278 360 5 0 0 0 - - -, f 5;
#X floatatom 301 391 5 0 0 0 - - -, f 5;
#X obj 269 410 * 2;
#X obj 572 400 min;
#X floatatom 572 422 5 0 0 0 - - -, f 5;
#X msg 574 362 999;
#X obj 509 394 t b f;
#X obj 521 433 -;
#X obj 269 434 + 2;
#X obj 521 521 + 1;
#X text 561 582 make it react slow on low freqs and a fast on high
;
#X obj 444 628 mavg 88;
#X floatatom 444 650 5 0 0 0 - - -, f 5;
#X text 378 -231 Only get the specCentroid when pitch fidelty is high
;
#X floatatom 713 481 5 0 0 0 - - -, f 5;
#X obj 521 455 - 120;
#X obj 521 477 clip 0 1000;
#X obj 521 499 * -0.001;
#X floatatom 541 617 5 0 0 0 - - -, f 5;
#X obj 521 585 + 1;
#X floatatom 269 456 5 0 0 0 - - -, f 5;
#X obj 521 564 * 4;
#X obj 521 543 pow 16;
#X obj 75 315 t f b;
#X connect 0 0 27 0;
#X connect 1 0 36 0;
#X connect 1 0 47 0;
#X connect 3 0 32 0;
#X connect 4 0 16 0;
#X connect 4 0 31 0;
#X connect 5 0 36 1;
#X connect 6 0 9 2;
#X connect 7 0 9 0;
#X connect 9 0 31 0;
#X connect 10 0 40 0;
#X connect 11 4 12 0;
#X connect 11 5 21 1;
#X connect 11 6 10 1;
#X connect 12 0 21 0;
#X connect 12 0 28 0;
#X connect 13 0 16 1;
#X connect 14 0 30 0;
#X connect 15 0 16 0;
#X connect 16 0 13 0;
#X connect 16 0 12 1;
#X connect 16 0 23 0;
#X connect 16 0 25 0;
#X connect 16 0 26 0;
#X connect 17 0 12 0;
#X connect 18 0 29 0;
#X connect 21 0 18 0;
#X connect 22 0 11 0;
#X connect 23 1 24 0;
#X connect 24 0 13 0;
#X connect 25 0 22 1;
#X connect 26 0 17 1;
#X connect 26 0 28 1;
#X connect 27 0 4 0;
#X connect 28 0 10 0;
#X connect 29 0 64 0;
#X connect 29 1 38 0;
#X connect 30 0 16 0;
#X connect 31 0 35 0;
#X connect 32 0 4 1;
#X connect 34 0 35 1;
#X connect 35 0 37 0;
#X connect 35 1 17 0;
#X connect 35 1 22 0;
#X connect 36 0 9 1;
#X connect 39 0 29 1;
#X connect 40 0 48 0;
#X connect 40 0 8 0;
#X connect 41 0 43 1;
#X connect 42 0 49 1;
#X connect 43 0 49 0;
#X connect 44 0 45 0;
#X connect 45 0 44 1;
#X connect 46 0 44 0;
#X connect 46 0 44 1;
#X connect 47 0 48 0;
#X connect 47 1 48 1;
#X connect 48 0 44 0;
#X connect 48 0 56 0;
#X connect 49 0 40 1;
#X connect 49 0 61 0;
#X connect 50 0 52 0;
#X connect 50 0 63 0;
#X connect 52 0 53 0;
#X connect 56 0 55 0;
#X connect 56 0 57 0;
#X connect 57 0 58 0;
#X connect 58 0 50 0;
#X connect 60 0 43 1;
#X connect 60 0 49 1;
#X connect 60 0 59 0;
#X connect 62 0 60 0;
#X connect 63 0 62 0;
#X connect 64 0 43 0;
#X connect 64 1 10 0;
#X restore 709 238 pd formantTracker;
#N canvas 2 45 672 535 onsets 1;
#X obj 54 -36 inlet~;
#X obj 54 238 outlet;
#X obj 1 -85 cnv 10 400 10 empty empty empty 20 12 0 14 -233017 -66577
0;
#X obj 1 -85 cnv 10 10 400 empty empty empty 20 12 0 14 -233017 -66577
0;
#X obj 62 373 loadbang;
#X text 316 -35 timbreID comes with its own onset detection object:
bark~. See its helpfile for more details. In comparison with bonk~
(the usual onset detection object in Pd) \, bark~ performs very similarly
but has several extra conveniences. Most importantly \, there is a
non-real-time version of the object \, enabling easy parsing of pre-recorded
audio.;
#N canvas 1026 50 1916 1012 thresh-details 0;
#X text 26 19 As with bonk~ \, the thresh message lets you specify
lower and upper growth thresholds. An onset is reported when growth
exceeds the upper threshold \, then falls below the lower threshold.
If lower threshold is set to -1 \, onsets are reported at the first
sign of decay after growth exceeds the upper threshold.;
#X text 26 109 See the [pd other-messages-and-settings] subpatch for
information on the "measure" function \, which can help you find appropriate
thresholds.;
#X restore 511 454 pd thresh-details;
#N canvas 1026 50 1571 1012 mask-details 0;
#X text 18 49 As with bonk~ \, you can specify a number of analysis
periods and decay rate for the energy mask.;
#X obj 153 146 bonk~;
#X restore 511 494 pd mask-details;
#N canvas 913 269 464 176 debounce-details 0;
#X text 18 39 The spectral flux that goes on during the first few milliseconds
of an instrument's attack can cause extra onset reports. Provide a
time in milliseconds with the "debounce" message to deal with this.
After an onset report \, bark~ will then suppress further onset reporting
until that number of milliseconds goes by. This feature is useful for
eliminating a burst of attack reports when the first one is all you
really needed.;
#X restore 511 534 pd debounce-details;
#N canvas 810 377 466 228 filter_range-details 0;
#X text 18 158 You can send bark~ the "filter_freqs" message to see
the center frequency in Hz of each filter in the bank.;
#X text 18 39 Use the "filter_range" message to specify a range of
filters to use in the total growth measurement. The appropriate limits
for these values depend on how many filters are in the Bark filterbank.
With the default spacing of 0.5 Barks \, you get 47 filters \, so "filter_range
0 46" would cause bark~ to use the entire filterbank. If you think
you can capture attacks with only high frequencies \, you might want
to try "filter_range 30 46" \, for instance.;
#X restore 511 574 pd filter_range-details;
#X msg 371 574 filter_range 0 46;
#X msg 175 676 filter-freqs;
#X obj 161 14 r bark-settings-\$0;
#X obj 311 695 s bark-settings-\$0;
#X obj 54 46 bark~ 2048 128 0.5;
#X obj 61 338 bng 15 250 50 0 empty empty empty 17 7 0 10 -262144 -1
-1;
#N canvas 1026 50 1916 1012 thresh-details 0;
#X text 26 19 As with bonk~ \, the thresh message lets you specify
lower and upper growth thresholds. An onset is reported when growth
exceeds the upper threshold \, then falls below the lower threshold.
If lower threshold is set to -1 \, onsets are reported at the first
sign of decay after growth exceeds the upper threshold.;
#X text 26 109 See the [pd other-messages-and-settings] subpatch for
information on the "measure" function \, which can help you find appropriate
thresholds.;
#X restore 675 454 pd thresh-details;
#N canvas 868 187 477 161 mask-details 0;
#X text 18 49 As with bonk~ \, you can specify a number of analysis
periods and decay rate for the energy mask.;
#X restore 675 494 pd mask-details;
#N canvas 913 269 464 176 debounce-details 0;
#X text 18 39 The spectral flux that goes on during the first few milliseconds
of an instrument's attack can cause extra onset reports. Provide a
time in milliseconds with the "debounce" message to deal with this.
After an onset report \, bark~ will then suppress further onset reporting
until that number of milliseconds goes by. This feature is useful for
eliminating a burst of attack reports when the first one is all you
really needed.;
#X restore 675 534 pd debounce-details;
#N canvas 1026 50 1571 1012 filter_range-details 0;
#X text 18 158 You can send bark~ the "filter_freqs" message to see
the center frequency in Hz of each filter in the bank.;
#X text 18 39 Use the "filter_range" message to specify a range of
filters to use in the total growth measurement. The appropriate limits
for these values depend on how many filters are in the Bark filterbank.
With the default spacing of 0.5 Barks \, you get 47 filters \, so "filter_range
0 46" would cause bark~ to use the entire filterbank. If you think
you can capture attacks with only high frequencies \, you might want
to try "filter_range 30 46" \, for instance.;
#X restore 675 574 pd filter_range-details;
#X msg 407 626 filter_freqs;
#X obj 264 565 print;
#X msg 406 450 thresh -1 30;
#X floatatom 331 403 5 0 0 0 - - -, f 5;
#X obj 587 190 inlet certainty;
#X floatatom 492 276 5 0 0 0 - - -, f 5;
#X floatatom 653 272 5 0 0 0 - - -, f 5;
#X floatatom 588 278 5 0 0 0 - - -, f 5;
#X floatatom 656 238 5 0 0 0 - - -, f 5;
#X floatatom 615 214 5 0 0 0 - - -, f 5;
#X msg 331 494 mask 4 0.75;
#X msg 311 454 thresh -1 \$1;
#X floatatom 182 -35 5 0 0 0 - - -, f 5;
#X obj 102 -13 hip~ 10000;
#X obj 588 256 + 22;
#X obj 588 234 * 364;
#X obj 102 9 *~ 16;
#X msg 351 534 debounce 50;
#X obj 95 81 bng 15 250 50 0 empty empty empty 17 7 0 10 -262144 -1
-1;
#X connect 0 0 33 0;
#X connect 0 0 14 0;
#X connect 4 0 31 0;
#X connect 4 0 30 0;
#X connect 4 0 37 0;
#X connect 4 0 10 0;
#X connect 10 0 13 0;
#X connect 11 0 13 0;
#X connect 12 0 14 0;
#X connect 14 0 1 0;
#X connect 14 0 38 0;
#X connect 20 0 13 0;
#X connect 22 0 13 0;
#X connect 23 0 31 0;
#X connect 24 0 25 0;
#X connect 24 0 35 0;
#X connect 28 0 34 1;
#X connect 29 0 35 1;
#X connect 30 0 13 0;
#X connect 31 0 13 0;
#X connect 32 0 36 1;
#X connect 33 0 36 0;
#X connect 34 0 27 0;
#X connect 34 0 31 0;
#X connect 35 0 34 0;
#X connect 36 0 14 0;
#X connect 37 0 13 0;
#X restore 164 239 pd onsets;
#X msg 649 386 disconnect;
#X obj 651 332 loadbang;
#X msg 281 239 send /VocSynth/OSC/pitch \$1;
#X msg 484 239 send /VocSynth/OSC/fidelity \$1;
#X msg 182 332 send /VocSynth/OSC/onset \$1;
#X msg 138 277 1;
#X msg 182 301 0;
#X obj 182 279 delay 100;
#N canvas 2 45 672 535 PitchTracker4 1;
#X obj -339 -78 inlet~;
#N canvas 2 45 672 535 filters 0;
#X obj 47 41 inlet~;
#X obj 47 226 outlet~;
#X text 103 79 DC filter;
#X text 221 140 sibilant filter;
#X obj 298 50 inlet;
#X text 338 49 freq;
#X obj 200 218 bng 15 250 50 0 empty empty empty 17 7 0 10 -262144
-1 -1;
#X obj 47 102 lop~ 3000;
#X obj 47 122 lop~ 3000;
#X obj 47 142 lop~ 3000;
#X obj 47 162 lop~ 3000;
#X obj 47 182 lop~ 3000;
#X obj 47 202 lop~ 3000;
#X obj 47 80 hip~ 80;
#X connect 0 0 13 0;
#X connect 4 0 7 1;
#X connect 4 0 8 1;
#X connect 4 0 9 1;
#X connect 4 0 10 1;
#X connect 4 0 11 1;
#X connect 4 0 12 1;
#X connect 7 0 8 0;
#X connect 8 0 9 0;
#X connect 9 0 10 0;
#X connect 10 0 11 0;
#X connect 11 0 12 0;
#X connect 12 0 1 0;
#X connect 13 0 7 0;
#X restore -340 -57 pd filters;
#X obj -273 -76 nbx 4 14 500 3000 1 1 empty empty empty 0 -8 0 10 -262144
-1 -1 500 256;
#X text -349 -94 lo pass filter freq;
#X msg -222 -61 0.25;
#X obj -222 -87 loadbang;
#X text -195 -62 resample factor;
#N canvas 1026 50 1916 1007 user-parameters 0;
#X obj 45 139 vradio 15 1 1 4 empty empty empty 0 -8 0 10 -262144 -260097
-1 3;
#N canvas 0 50 167 265 overlap 0;
#X obj 29 35 inlet;
#X obj 29 195 outlet;
#X obj 29 130 pow;
#X obj 29 70 t b f;
#X msg 29 102 2;
#X msg 29 162 overlap \$1;
#X connect 0 0 3 0;
#X connect 2 0 5 0;
#X connect 3 0 4 0;
#X connect 3 1 2 1;
#X connect 4 0 2 0;
#X connect 5 0 1 0;
#X restore 45 210 pd overlap;
#N canvas 2 50 1571 1007 framesize 0;
#X obj 29 14 inlet;
#X obj 29 242 outlet;
#X obj 29 119 pow;
#X obj 29 64 t b f;
#X msg 29 91 2;
#X msg 29 198 framesize \$1;
#X obj 29 41 + 8;
#X obj 43 173 s \$0-framesize;
#X floatatom 53 144 5 0 0 0 - - -, f 5;
#X obj 159 163 samplerate~;
#X obj 159 136 t b f;
#X obj 159 191 /;
#X obj 159 245 outlet;
#X obj 159 219 * 1.2;
#X connect 0 0 6 0;
#X connect 2 0 5 0;
#X connect 2 0 7 0;
#X connect 2 0 8 0;
#X connect 2 0 10 0;
#X connect 3 0 4 0;
#X connect 3 1 2 1;
#X connect 4 0 2 0;
#X connect 5 0 1 0;
#X connect 6 0 3 0;
#X connect 9 0 11 0;
#X connect 10 0 9 0;
#X connect 10 1 11 1;
#X connect 11 0 13 0;
#X connect 13 0 12 0;
#X restore 29 60 pd framesize;
#X obj 29 -9 vradio 15 1 1 4 empty empty empty 0 -8 0 10 -262144 -260097
-1 0;
#X text 50 -9 256;
#X text 50 7 512;
#X text 49 37 2048;
#X text 67 154 2;
#X text 67 186 8;
#X text 67 171 4;
#X obj 29 501 outlet;
#X floatatom 98 90 5 0 0 0 - - -, f 5;
#X text 49 22 1024 (default);
#X text 67 138 1 (default);
#X text 292 84 Overlapping analysis frames can be used for a finer
rate of pitch messages. This may be useful in the case of longer analysis
frames. Note that overlap multiplies the object's CPU load.;
#X msg 62 292 bias \$1;
#X obj 65 242 hsl 100 15 0 1 0 1 empty empty empty -2 -8 0 10 -262144
-260097 -1 9900 0;
#X floatatom 71 266 5 0 0 0 - - -, f 5;
#X text 290 152 Bias (range 0 - 1) is used to favour the first peaks
found in the SNAC function. If bias is set to a higher level \, you
are more likely to experience upper octave jumps. If bias is set to
a low level \, low octave jumps are more likely to happen. Set bias
according to your input material. For example \, for a sound type with
weak fundamental \, bias is better not set too high. Default is 0.2.
;
#X obj 64 325 hsl 100 15 0 1 0 1 empty empty empty -2 -8 0 10 -262144
-260097 -1 0 0;
#X floatatom 70 349 5 0 0 0 - - -, f 5;
#X msg 61 375 fidelity \$1;
#X text 290 259 Fidelity (range 0 - 1 ) determines the fidelity threshold
required for new pitch information to get through. Fidelity is an indication
of how periodic a sound is (as opposed to noisy \, not periodic). Default
is 0.95.;
#X text 292 -9 Analysis framesize determines the lowest pitch which
can be detected \, corresponding to a period ~1.2 times the framesize.
Framesize also determines latency of the pitch info. Note that reported
pitch is the average pitch of an analysis frame. Framesize is always
a power of two \, because FFT is used for efficiency.;
#X text 93 110 lowest detectable pitch (Hz);
#X obj 65 409 hsl 100 15 0 2000 0 1 empty empty empty -2 -8 0 10 -262144
-260097 -1 2400 0;
#X floatatom 72 431 5 0 0 0 - - -, f 5;
#X msg 62 459 maxfreq \$1;
#X text 291 330 Maxfreq is the maximum frequency which will possibly
be reported by [helmholtz~]. Default is 2000 Set it lower if you experience
harmonic interference components such as from cellphones.;
#X text -51 359 has to be zero so it gives continuous fidelity outputs
;
#X connect 0 0 1 0;
#X connect 1 0 10 0;
#X connect 2 0 10 0;
#X connect 2 1 11 0;
#X connect 3 0 2 0;
#X connect 15 0 10 0;
#X connect 16 0 15 0;
#X connect 16 0 17 0;
#X connect 19 0 21 0;
#X connect 19 0 20 0;
#X connect 21 0 10 0;
#X connect 25 0 27 0;
#X connect 25 0 26 0;
#X connect 27 0 10 0;
#X restore -103 -85 pd user-parameters;
#N canvas 1026 50 1571 1012 downsample--------------------------- 0
;
#X obj 29 38 inlet~;
#X obj 57 243 outlet;
#X obj 107 244 outlet;
#X obj 251 180 samplerate~;
#X floatatom 273 216 5 0 0 0 - - -, f 5;
#X obj 251 155 bng 15 250 50 0 empty empty empty 17 7 0 10 -262144
-1 -1;
#X obj 170 99 block~ 64 1 0.25;
#X obj 170 38 inlet;
#X obj 251 244 outlet;
#X obj 272 153 loadbang;
#X msg 43 154 framesize \$1;
#X msg 170 69 set 64 1 \$1;
#X obj 43 81 * 1024;
#X obj 229 38 inlet;
#X text 275 37 user parameters;
#X obj 29 185 helmholtz~;
#X obj 52 128 s \$0-reduced-framesize;
#X floatatom 61 105 5 0 0 0 - - -, f 5;
#X connect 0 0 15 0;
#X connect 3 0 4 0;
#X connect 3 0 8 0;
#X connect 5 0 3 0;
#X connect 7 0 11 0;
#X connect 7 0 5 0;
#X connect 7 0 12 0;
#X connect 9 0 3 0;
#X connect 10 0 15 0;
#X connect 11 0 6 0;
#X connect 12 0 10 0;
#X connect 12 0 16 0;
#X connect 12 0 17 0;
#X connect 13 0 15 0;
#X connect 15 1 1 0;
#X connect 15 2 2 0;
#X restore -340 -35 pd downsample---------------------------;
#X obj -356 832 outlet pitch;
#X obj -251 833 outlet fidelity;
#X floatatom 495 769 9 0 0 0 - - -, f 9;
#X obj -356 665 vsl 15 128 3 300 1 0 empty empty empty 0 -9 0 10 -262144
-1 -1 0 1;
#X floatatom 603 753 9 0 0 0 - - -, f 9;
#X obj 36 -127 vsl 15 128 0 0.1 0 0 empty empty empty 0 -9 0 10 -262144
-1 -1 0 1;
#X floatatom 36 9 9 0 0 0 - - -, f 9;
#X obj -376 90 vsl 15 128 -1 1 0 0 empty empty empty 0 -9 0 10 -262144
-1 -1 0 1;
#X obj 132 15 loadbang;
#X obj 825 529 + 1;
#X msg 36 42 0.1;
#X text -100 -62 gives a value every 6 ms;
#X floatatom -300 779 5 0 0 0 - - -, f 5;
#X obj 1003 218 nusmuk/puremapping/curve_pow 0.012;
#X obj 1003 246 maxlib/scale 0 1 32 110;
#X obj -94 36 moses;
#X obj -90 84 line;
#X text -35 45 up;
#X text -143 39 down;
#X obj -299 626 f;
#X obj -212 539 b;
#X floatatom 29 202 5 0 0 0 - - -, f 5;
#X obj 439 -27 vsl 15 128 0.9 1 0 0 empty empty empty 0 -9 0 10 -262144
-1 -1 0 1;
#X floatatom 439 109 9 0 0 0 - - -, f 9;
#X obj -251 472 moses 0.995;
#X floatatom -14 221 5 0 0 0 - - -, f 5;
#X obj -96 13 * 200;
#X obj -176 223 *;
#X obj -70 174 t b f;
#X obj -305 4 clip 60 90;
#X obj -176 201 maxlib/scale 60 90 0 1;
#X floatatom -272 667 5 0 0 0 - - -, f 5;
#X floatatom -121 334 5 0 0 0 - - -, f 5;
#X obj -121 355 / 100;
#X floatatom -121 377 5 0 0 0 - - -, f 5;
#X obj 109 130 vsl 15 128 -1 1 0 0 empty empty empty 0 -9 0 10 -262144
-1 -1 0 1;
#X floatatom 41 254 5 0 0 0 - - -, f 5;
#X msg -40 63 \$1 1000;
#X msg -141 59 \$1 0;
#X obj -90 128 pow 1;
#X obj -183 436 maxlib/scale 0 1 0.59 0.995;
#X floatatom -70 336 5 0 0 0 - - -, f 5;
#X obj -70 357 / 100;
#X floatatom -70 379 5 0 0 0 - - -, f 5;
#X obj -175 254 puremapping/curve_pow -0.32;
#X obj 182 113 zexy;
#X obj -96 -9 envrms~;
#X obj -90 106 cyclone/tanh;
#X floatatom -152 490 5 0 0 0 - - -, f 5;
#X floatatom -175 276 5 0 0 0 - - -, f 5;
#X floatatom -90 150 5 0 0 0 - - -, f 5;
#X floatatom -299 648 5 0 0 0 - - -, f 5;
#X floatatom -31 19 5 0 0 0 - - -, f 5;
#X connect 0 0 1 0;
#X connect 0 0 55 0;
#X connect 1 0 8 0;
#X connect 2 0 1 1;
#X connect 4 0 8 1;
#X connect 5 0 4 0;
#X connect 7 0 8 2;
#X connect 8 0 28 1;
#X connect 8 0 38 0;
#X connect 8 1 33 0;
#X connect 8 1 10 0;
#X connect 12 0 9 0;
#X connect 14 0 15 0;
#X connect 17 0 19 0;
#X connect 22 0 23 0;
#X connect 24 0 47 0;
#X connect 24 1 46 0;
#X connect 25 0 56 0;
#X connect 28 0 9 0;
#X connect 28 0 60 0;
#X connect 29 0 28 0;
#X connect 31 0 32 0;
#X connect 31 0 33 1;
#X connect 33 1 29 0;
#X connect 35 0 24 0;
#X connect 35 0 61 0;
#X connect 36 0 53 0;
#X connect 37 0 36 0;
#X connect 37 1 36 1;
#X connect 38 0 39 0;
#X connect 39 0 36 0;
#X connect 41 0 42 0;
#X connect 42 0 43 0;
#X connect 42 0 49 3;
#X connect 44 0 45 0;
#X connect 44 0 53 1;
#X connect 46 0 25 0;
#X connect 47 0 25 0;
#X connect 48 0 37 0;
#X connect 48 0 59 0;
#X connect 49 0 33 1;
#X connect 49 0 57 0;
#X connect 50 0 51 0;
#X connect 51 0 52 0;
#X connect 52 0 49 4;
#X connect 53 0 49 0;
#X connect 53 0 58 0;
#X connect 55 0 35 0;
#X connect 56 0 24 1;
#X connect 56 0 48 0;
#X restore 396 155 pd PitchTracker4;
#X msg 620 286 send /VocSynth/OSC/formant \$1;
#X obj 441 374 osc/packOSC;
#X obj 441 451 net/udpsend;
#X msg 651 354 connect 127.0.0.1 5510;
#X floatatom 396 177 5 0 0 0 - - -, f 5;
#X connect 0 0 11 0;
#X connect 0 0 1 1;
#X connect 0 0 2 0;
#X connect 1 0 12 0;
#X connect 2 0 8 0;
#X connect 2 0 10 0;
#X connect 3 0 14 0;
#X connect 4 0 15 0;
#X connect 5 0 13 0;
#X connect 7 0 13 0;
#X connect 8 0 7 0;
#X connect 9 0 7 0;
#X connect 10 0 9 0;
#X connect 11 0 5 0;
#X connect 11 0 16 0;
#X connect 11 1 1 0;
#X connect 11 1 2 1;
#X connect 11 1 6 0;
#X connect 12 0 13 0;
#X connect 13 0 14 0;
#X connect 15 0 14 0;
