#N canvas 0 43 1920 1021 10;
#X obj 295 121 adc~;
#X msg 71 253 disconnect;
#X obj 114 79 loadbang;
#X msg 71 163 connect 127.0.0.1 5510;
#X msg 295 226 send /*/OSC/pitch \$1;
#X msg 448 226 send /*/OSC/fidelity \$1;
#X obj 295 296 osc/packOSC;
#X obj 295 329 net/udpsend;
#X msg 114 123 \; pd dsp 1;
#N canvas 2 50 1020 535 fallback 0;
#X obj 97 32 inlet pitch;
#X obj 57 64 == 0;
#N canvas 2 50 1020 535 alternativeOnOff 0;
#X obj 97 67 inlet activate;
#X obj 243 68 inlet~ audio;
#X obj 365 245 outlet pitch;
#X obj 376 174 unpack;
#X obj 243 90 fiddle~ 1024 1 0 1;
#X obj 212 14 loadbang;
#X obj 97 90 switch~;
#X msg 212 36 amp-range 45 45;
#X obj 335 196 pack;
#X obj 376 144 route 1;
#X obj 335 218 route 0 1;
#X obj 335 174 > 50;
#X connect 0 0 6 0;
#X connect 1 0 4 0;
#X connect 3 0 8 1;
#X connect 4 3 11 0;
#X connect 4 4 9 0;
#X connect 5 0 7 0;
#X connect 7 0 4 0;
#X connect 8 0 10 0;
#X connect 9 0 3 0;
#X connect 10 1 2 0;
#X connect 11 0 8 0;
#X restore 57 86 pd alternativeOnOff;
#X obj 97 128 outlet pitch;
#X obj 187 32 inlet~ audio;
#X text 79 168 a simple pd vanilla fallback \, in case the helmholtz~
pitchtracker is not installed.;
#X obj 57 12 loadbang;
#X msg 57 34 0;
#X connect 0 0 1 0;
#X connect 0 0 3 0;
#X connect 1 0 2 0;
#X connect 2 0 3 0;
#X connect 4 0 2 1;
#X connect 6 0 7 0;
#X connect 7 0 1 0;
#X restore 295 184 pd fallback;
#X obj 114 101 delay 500;
#X obj 184 101 delay 50;
#X obj 18 96 bng 15 250 50 0 empty empty empty 17 7 0 10 -262144 -1
-1;
#X obj 18 116 metro 2000;
#N canvas 0 43 1920 1021 PitchTracker 1;
#X obj 351 176 inlet~;
#N canvas 0 50 1920 1021 filters 0;
#X obj 47 41 inlet~;
#X obj 47 296 outlet~;
#X text 49 126 DC filter;
#X text 122 270 sibilant filter;
#X obj 234 40 inlet;
#X text 274 39 freq;
#X obj 200 218 bng 15 250 50 0 empty empty empty 17 7 0 10 -262144
-1 -1;
#X obj 47 171 lop~ 3000;
#X obj 47 192 lop~ 3000;
#X obj 47 212 lop~ 3000;
#X obj 47 232 lop~ 3000;
#X obj 47 252 lop~ 3000;
#X obj 47 272 lop~ 3000;
#X obj 47 105 hip~ 60;
#X obj 103 41 inlet lowest_freq;
#X floatatom 313 127 5 0 0 0 - - -, f 5;
#X connect 0 0 13 0;
#X connect 4 0 7 1;
#X connect 4 0 8 1;
#X connect 4 0 9 1;
#X connect 4 0 10 1;
#X connect 4 0 11 1;
#X connect 4 0 12 1;
#X connect 4 0 15 0;
#X connect 7 0 8 0;
#X connect 8 0 9 0;
#X connect 9 0 10 0;
#X connect 10 0 11 0;
#X connect 11 0 12 0;
#X connect 12 0 1 0;
#X connect 13 0 7 0;
#X connect 14 0 13 1;
#X restore 378 199 pd filters;
#X obj 417 137 nbx 4 14 500 3000 1 1 empty empty empty 0 -8 0 10 -262144
-1 -1 500 256;
#X text 341 119 lo pass filter freq;
#X obj 488 127 loadbang;
#X text 518 146 resample factor;
#N canvas 0 43 1920 1021 user-parameters 1;
#X obj 45 139 vradio 15 1 1 6 empty empty empty 0 -8 0 10 -262144 -260097
-1 3;
#N canvas 2 50 1046 610 overlap 0;
#X obj 29 35 inlet;
#X obj 29 195 outlet;
#X obj 29 130 pow;
#X obj 29 70 t b f;
#X msg 29 102 2;
#X msg 29 162 overlap \$1;
#X connect 0 0 3 0;
#X connect 2 0 5 0;
#X connect 3 0 4 0;
#X connect 3 1 2 1;
#X connect 4 0 2 0;
#X connect 5 0 1 0;
#X restore 45 250 pd overlap;
#N canvas 2 50 1571 1007 framesize 0;
#X obj 29 14 inlet;
#X obj 29 242 outlet;
#X obj 29 119 pow;
#X obj 29 64 t b f;
#X msg 29 91 2;
#X msg 29 198 framesize \$1;
#X obj 29 41 + 8;
#X obj 43 173 s \$0-framesize;
#X floatatom 53 144 5 0 0 0 - - -, f 5;
#X obj 159 163 samplerate~;
#X obj 159 136 t b f;
#X obj 159 191 /;
#X obj 159 245 outlet;
#X obj 159 219 * 1.2;
#X connect 0 0 6 0;
#X connect 2 0 5 0;
#X connect 2 0 7 0;
#X connect 2 0 8 0;
#X connect 2 0 10 0;
#X connect 3 0 4 0;
#X connect 3 1 2 1;
#X connect 4 0 2 0;
#X connect 5 0 1 0;
#X connect 6 0 3 0;
#X connect 9 0 11 0;
#X connect 10 0 9 0;
#X connect 10 1 11 1;
#X connect 11 0 13 0;
#X connect 13 0 12 0;
#X restore 29 60 pd framesize;
#X obj 29 -9 vradio 15 1 1 4 empty empty empty 0 -8 0 10 -262144 -260097
-1 3;
#X text 50 -9 256;
#X text 50 7 512;
#X text 49 37 2048;
#X text 67 154 2;
#X text 67 171 4;
#X obj 29 541 outlet;
#X floatatom 98 90 7 0 0 0 - - -, f 7;
#X text 49 22 1024 (default);
#X text 67 138 1 (default);
#X text 292 84 Overlapping analysis frames can be used for a finer
rate of pitch messages. This may be useful in the case of longer analysis
frames. Note that overlap multiplies the object's CPU load.;
#X msg 62 332 bias \$1;
#X obj 65 282 hsl 100 15 0 1 0 1 empty empty empty -2 -8 0 10 -262144
-260097 -1 7800 0;
#X floatatom 71 306 5 0 0 0 - - -, f 5;
#X text 290 152 Bias (range 0 - 1) is used to favour the first peaks
found in the SNAC function. If bias is set to a higher level \, you
are more likely to experience upper octave jumps. If bias is set to
a low level \, low octave jumps are more likely to happen. Set bias
according to your input material. For example \, for a sound type with
weak fundamental \, bias is better not set too high. Default is 0.2.
;
#X obj 64 365 hsl 100 15 0 1 0 1 empty empty empty -2 -8 0 10 -262144
-260097 -1 0 0;
#X floatatom 70 389 5 0 0 0 - - -, f 5;
#X msg 61 415 fidelity \$1;
#X text 290 259 Fidelity (range 0 - 1 ) determines the fidelity threshold
required for new pitch information to get through. Fidelity is an indication
of how periodic a sound is (as opposed to noisy \, not periodic). Default
is 0.95.;
#X text 292 -9 Analysis framesize determines the lowest pitch which
can be detected \, corresponding to a period ~1.2 times the framesize.
Framesize also determines latency of the pitch info. Note that reported
pitch is the average pitch of an analysis frame. Framesize is always
a power of two \, because FFT is used for efficiency.;
#X text 93 110 lowest detectable pitch (Hz);
#X text 291 330 Maxfreq is the maximum frequency which will possibly
be reported by [helmholtz~]. Default is 2000 Set it lower if you experience
harmonic interference components such as from cellphones.;
#X text -51 399 has to be zero so it gives continuous fidelity outputs
;
#X text 67 186 8;
#X obj 113 186 loadbang;
#X msg 113 208 8;
#X connect 1 0 9 0;
#X connect 2 0 9 0;
#X connect 2 1 10 0;
#X connect 3 0 2 0;
#X connect 14 0 9 0;
#X connect 15 0 14 0;
#X connect 15 0 16 0;
#X connect 18 0 20 0;
#X connect 18 0 19 0;
#X connect 20 0 9 0;
#X connect 27 0 28 0;
#X connect 28 0 1 0;
#X restore 627 197 pd user-parameters;
#N canvas 0 43 1920 1021 downsample--------------------------- 1;
#X obj 29 38 inlet~;
#X obj 57 243 outlet;
#X obj 107 244 outlet;
#X obj 251 180 samplerate~;
#X floatatom 273 216 5 0 0 0 - - -, f 5;
#X obj 251 155 bng 15 250 50 0 empty empty empty 17 7 0 10 -262144
-1 -1;
#X obj 170 99 block~ 64 1 0.25;
#X obj 170 38 inlet;
#X obj 251 244 outlet;
#X obj 272 153 loadbang;
#X msg 43 154 framesize \$1;
#X msg 170 69 set 64 1 \$1;
#X obj 43 81 * 1024;
#X obj 229 38 inlet;
#X text 275 37 user parameters;
#X obj 29 185 helmholtz~;
#X obj 52 128 s \$0-reduced-framesize;
#X floatatom 61 105 5 0 0 0 - - -, f 5;
#X connect 0 0 15 0;
#X connect 3 0 4 0;
#X connect 3 0 8 0;
#X connect 5 0 3 0;
#X connect 7 0 11 0;
#X connect 7 0 5 0;
#X connect 7 0 12 0;
#X connect 9 0 3 0;
#X connect 10 0 15 0;
#X connect 11 0 6 0;
#X connect 12 0 10 0;
#X connect 12 0 16 0;
#X connect 12 0 17 0;
#X connect 13 0 15 0;
#X connect 15 1 1 0;
#X connect 15 2 2 0;
#X restore 350 235 pd downsample---------------------------;
#X obj 351 661 outlet pitch;
#X obj 488 661 outlet fidelity;
#X text 460 165 gives a value every 6 ms;
#X obj 417 578 f;
#X obj 590 513 b;
#X floatatom 851 370 5 0 0 0 - - -, f 5;
#X obj 851 391 / 100;
#X floatatom 851 413 5 0 0 0 - - -, f 5;
#X floatatom 891 370 5 0 0 0 - - -, f 5;
#X obj 891 391 / 100;
#X floatatom 891 413 5 0 0 0 - - -, f 5;
#X text 624 515 only let pitch trough if fidelity is high;
#X text 782 464 on low notes \, be less critical of the fidelity;
#X obj 590 377 clip 60 80;
#X obj 350 287 moses 60;
#X obj 841 163 nbx 4 14 25 200 1 1 empty empty empty 0 -8 0 10 -262144
-1 -1 30 256;
#X obj 841 193 * 1.33;
#X text 888 159 lowest note you produce;
#X text 894 192 the range above the lowest note that has flaky fidelity
;
#X obj 800 310 loadbang;
#X msg 800 332 -0.1;
#N canvas 2 50 1020 535 curve_pow 0;
#X obj 106 325 pow 1;
#X obj 62 10 inlet;
#X obj 257 9 inlet;
#X obj 106 405 outlet;
#X obj 271 243 exp;
#X msg 287 177 2;
#X obj 287 198 log;
#X obj 271 221 *;
#X obj 62 248 moses 0;
#X obj 62 283 * -1;
#X obj 62 325 pow 1;
#X obj 62 352 * -1;
#X obj 265 37 loadbang;
#X obj 257 155 t f b;
#X obj 257 119 * 10;
#X obj 257 66 \$1;
#X obj 223 35 bng 15 250 50 0 empty empty empty 17 7 0 10 -262144 -1
-1;
#X floatatom 257 88 5 0 0 0 - - -, f 5;
#X connect 0 0 3 0;
#X connect 1 0 8 0;
#X connect 2 0 15 0;
#X connect 4 0 0 1;
#X connect 4 0 10 1;
#X connect 5 0 6 0;
#X connect 6 0 7 1;
#X connect 7 0 4 0;
#X connect 8 0 9 0;
#X connect 8 1 0 0;
#X connect 9 0 10 0;
#X connect 10 0 11 0;
#X connect 11 0 3 0;
#X connect 12 0 15 0;
#X connect 13 0 7 0;
#X connect 13 1 5 0;
#X connect 14 0 13 0;
#X connect 15 0 14 0;
#X connect 15 0 17 0;
#X connect 16 0 15 0;
#X restore 590 426 pd curve_pow;
#N canvas 2 50 1046 610 scaleFrom01 0;
#X obj 98 5 inlet;
#X obj 162 161 outlet;
#X obj 148 5 inlet;
#X obj 208 5 inlet;
#X obj 208 77 -;
#X obj 162 113 * 0.14;
#X obj 162 137 + 0.8;
#X obj 148 27 t b f f;
#X connect 0 0 5 0;
#X connect 2 0 7 0;
#X connect 3 0 4 0;
#X connect 4 0 5 1;
#X connect 5 0 6 0;
#X connect 6 0 1 0;
#X connect 7 0 4 0;
#X connect 7 1 4 1;
#X connect 7 2 6 1;
#X restore 590 456 pd scaleFrom01;
#N canvas 2 50 1020 535 scaleTo01 0;
#X obj 98 35 inlet;
#X obj 98 77 - 60;
#X obj 98 119 / 20;
#X obj 98 141 outlet;
#X obj 148 35 inlet;
#X obj 198 35 inlet;
#X obj 198 77 -;
#X connect 0 0 1 0;
#X connect 1 0 2 0;
#X connect 2 0 3 0;
#X connect 4 0 1 1;
#X connect 4 0 6 1;
#X connect 5 0 6 0;
#X connect 6 0 2 1;
#X restore 590 402 pd scaleTo01;
#X floatatom 534 388 5 0 0 0 - - -, f 5;
#X obj 534 409 / 100;
#X floatatom 534 431 5 0 0 0 - - -, f 5;
#X obj 290 509 -;
#X obj 290 458 f;
#X obj 290 553 /;
#X obj 290 531 abs;
#X obj 332 531 max;
#X obj 290 480 t f f;
#X obj 290 598 t b;
#X obj 523 463 f;
#X obj 403 309 t b f f;
#X obj 295 427 t f b f f f;
#X obj 351 626 f;
#X obj 290 575 moses 0.4;
#X floatatom 350 554 5 0 0 0 - - -, f 5;
#X obj 523 488 moses 0.9;
#X obj 841 133 inlet minPitch;
#X obj 662 116 inlet maxPitch;
#X msg 660 137 maxfreq \$1;
#X floatatom 694 161 5 0 0 0 - - -, f 5;
#X floatatom 316 260 5 0 0 0 - - -, f 5;
#X msg 488 147 1;
#X connect 0 0 1 0;
#X connect 0 0 7 0;
#X connect 2 0 1 2;
#X connect 4 0 54 0;
#X connect 6 0 7 2;
#X connect 7 0 22 0;
#X connect 7 0 53 0;
#X connect 7 1 42 1;
#X connect 7 1 9 0;
#X connect 11 0 44 0;
#X connect 12 0 11 0;
#X connect 13 0 14 0;
#X connect 14 0 15 0;
#X connect 14 0 30 1;
#X connect 16 0 17 0;
#X connect 17 0 18 0;
#X connect 17 0 30 2;
#X connect 21 0 31 0;
#X connect 22 1 43 0;
#X connect 23 0 22 1;
#X connect 23 0 21 1;
#X connect 23 0 24 0;
#X connect 23 0 1 1;
#X connect 23 0 31 1;
#X connect 24 0 21 2;
#X connect 24 0 31 2;
#X connect 27 0 28 0;
#X connect 28 0 29 1;
#X connect 29 0 30 0;
#X connect 31 0 29 0;
#X connect 32 0 33 0;
#X connect 33 0 34 0;
#X connect 33 0 48 1;
#X connect 35 0 38 0;
#X connect 36 0 40 0;
#X connect 37 0 46 0;
#X connect 38 0 37 0;
#X connect 39 0 37 1;
#X connect 40 0 35 0;
#X connect 40 1 39 0;
#X connect 41 0 45 0;
#X connect 42 0 48 0;
#X connect 43 0 42 0;
#X connect 43 1 21 0;
#X connect 43 2 11 1;
#X connect 43 2 8 0;
#X connect 44 0 36 1;
#X connect 44 1 36 0;
#X connect 44 2 35 1;
#X connect 44 3 39 1;
#X connect 44 4 45 1;
#X connect 46 0 41 0;
#X connect 47 0 46 1;
#X connect 48 1 12 0;
#X connect 49 0 23 0;
#X connect 50 0 51 0;
#X connect 50 0 2 0;
#X connect 50 0 52 0;
#X connect 50 0 1 2;
#X connect 51 0 7 2;
#X connect 54 0 7 1;
#X restore 295 152 pd PitchTracker;
#X obj 346 20 net/udpreceive 5511;
#X obj 346 48 osc/unpackOSC;
#X obj 346 75 osc/pipelist;
#X msg 72 222 send /*/OSC/min_pitch get;
#X msg 73 192 send /*/OSC/max_pitch get;
#X obj 346 109 osc/routeOSC /VoiceOfFaust/OSC/max_pitch /VoiceOfFaust/OSC/min_pitch
;
#X connect 0 0 14 0;
#X connect 0 0 9 1;
#X connect 1 0 7 0;
#X connect 2 0 3 0;
#X connect 2 0 10 0;
#X connect 2 0 11 0;
#X connect 2 0 13 0;
#X connect 3 0 7 0;
#X connect 4 0 6 0;
#X connect 5 0 6 0;
#X connect 6 0 7 0;
#X connect 9 0 4 0;
#X connect 10 0 8 0;
#X connect 11 0 8 0;
#X connect 12 0 13 0;
#X connect 13 0 3 0;
#X connect 13 0 19 0;
#X connect 13 0 18 0;
#X connect 14 0 9 0;
#X connect 14 1 5 0;
#X connect 15 0 16 0;
#X connect 16 0 17 0;
#X connect 16 1 17 1;
#X connect 17 0 20 0;
#X connect 18 0 6 0;
#X connect 19 0 6 0;
#X connect 20 0 14 1;
#X connect 20 1 14 2;
