#N canvas 2 45 508 535 10;
#X obj 297 64 adc~;
#X msg 73 156 disconnect;
#X obj 116 22 loadbang;
#X msg 73 96 connect 127.0.0.1 5510;
#X msg 297 129 send /*/OSC/pitch \$1;
#X msg 451 129 send /*/OSC/fidelity \$1;
#X obj 297 199 osc/packOSC;
#X obj 297 232 net/udpsend;
#N canvas 2 45 508 535 PitchTracker 0;
#X obj -379 -27 inlet~;
#N canvas 2 45 508 535 filters 0;
#X obj 47 41 inlet~;
#X obj 47 296 outlet~;
#X text 49 126 DC filter;
#X text 122 270 sibilant filter;
#X obj 234 40 inlet;
#X text 274 39 freq;
#X obj 200 218 bng 15 250 50 0 empty empty empty 17 7 0 10 -262144
-1 -1;
#X obj 47 171 lop~ 3000;
#X obj 47 192 lop~ 3000;
#X obj 47 212 lop~ 3000;
#X obj 47 232 lop~ 3000;
#X obj 47 252 lop~ 3000;
#X obj 47 272 lop~ 3000;
#X obj 47 105 hip~ 60;
#X obj 103 41 inlet lowest_freq;
#X connect 0 0 13 0;
#X connect 4 0 7 1;
#X connect 4 0 8 1;
#X connect 4 0 9 1;
#X connect 4 0 10 1;
#X connect 4 0 11 1;
#X connect 4 0 12 1;
#X connect 7 0 8 0;
#X connect 8 0 9 0;
#X connect 9 0 10 0;
#X connect 10 0 11 0;
#X connect 11 0 12 0;
#X connect 12 0 1 0;
#X connect 13 0 7 0;
#X connect 14 0 13 1;
#X restore -380 -6 pd filters;
#X obj -313 -66 nbx 4 14 500 3000 1 1 empty empty empty 0 -8 0 10 -262144
-1 -1 3000 256;
#X text -389 -84 lo pass filter freq;
#X msg -242 -56 0.25;
#X obj -242 -76 loadbang;
#X text -212 -57 resample factor;
#N canvas 2 50 1020 535 user-parameters 0;
#X obj 45 139 vradio 15 1 1 4 empty empty empty 0 -8 0 10 -262144 -260097
-1 3;
#N canvas 0 50 167 265 overlap 0;
#X obj 29 35 inlet;
#X obj 29 195 outlet;
#X obj 29 130 pow;
#X obj 29 70 t b f;
#X msg 29 102 2;
#X msg 29 162 overlap \$1;
#X connect 0 0 3 0;
#X connect 2 0 5 0;
#X connect 3 0 4 0;
#X connect 3 1 2 1;
#X connect 4 0 2 0;
#X connect 5 0 1 0;
#X restore 45 210 pd overlap;
#N canvas 2 50 1571 1007 framesize 0;
#X obj 29 14 inlet;
#X obj 29 242 outlet;
#X obj 29 119 pow;
#X obj 29 64 t b f;
#X msg 29 91 2;
#X msg 29 198 framesize \$1;
#X obj 29 41 + 8;
#X obj 43 173 s \$0-framesize;
#X floatatom 53 144 5 0 0 0 - - -, f 5;
#X obj 159 163 samplerate~;
#X obj 159 136 t b f;
#X obj 159 191 /;
#X obj 159 245 outlet;
#X obj 159 219 * 1.2;
#X connect 0 0 6 0;
#X connect 2 0 5 0;
#X connect 2 0 7 0;
#X connect 2 0 8 0;
#X connect 2 0 10 0;
#X connect 3 0 4 0;
#X connect 3 1 2 1;
#X connect 4 0 2 0;
#X connect 5 0 1 0;
#X connect 6 0 3 0;
#X connect 9 0 11 0;
#X connect 10 0 9 0;
#X connect 10 1 11 1;
#X connect 11 0 13 0;
#X connect 13 0 12 0;
#X restore 29 60 pd framesize;
#X obj 29 -9 vradio 15 1 1 4 empty empty empty 0 -8 0 10 -262144 -260097
-1 0;
#X text 50 -9 256;
#X text 50 7 512;
#X text 49 37 2048;
#X text 67 154 2;
#X text 67 186 8;
#X text 67 171 4;
#X obj 29 501 outlet;
#X floatatom 98 90 5 0 0 0 - - -, f 5;
#X text 49 22 1024 (default);
#X text 67 138 1 (default);
#X text 292 84 Overlapping analysis frames can be used for a finer
rate of pitch messages. This may be useful in the case of longer analysis
frames. Note that overlap multiplies the object's CPU load.;
#X msg 62 292 bias \$1;
#X obj 65 242 hsl 100 15 0 1 0 1 empty empty empty -2 -8 0 10 -262144
-260097 -1 2000 0;
#X floatatom 71 266 5 0 0 0 - - -, f 5;
#X text 290 152 Bias (range 0 - 1) is used to favour the first peaks
found in the SNAC function. If bias is set to a higher level \, you
are more likely to experience upper octave jumps. If bias is set to
a low level \, low octave jumps are more likely to happen. Set bias
according to your input material. For example \, for a sound type with
weak fundamental \, bias is better not set too high. Default is 0.2.
;
#X obj 64 325 hsl 100 15 0 1 0 1 empty empty empty -2 -8 0 10 -262144
-260097 -1 0 0;
#X floatatom 70 349 5 0 0 0 - - -, f 5;
#X msg 61 375 fidelity \$1;
#X text 290 259 Fidelity (range 0 - 1 ) determines the fidelity threshold
required for new pitch information to get through. Fidelity is an indication
of how periodic a sound is (as opposed to noisy \, not periodic). Default
is 0.95.;
#X text 292 -9 Analysis framesize determines the lowest pitch which
can be detected \, corresponding to a period ~1.2 times the framesize.
Framesize also determines latency of the pitch info. Note that reported
pitch is the average pitch of an analysis frame. Framesize is always
a power of two \, because FFT is used for efficiency.;
#X text 93 110 lowest detectable pitch (Hz);
#X obj 65 409 hsl 100 15 0 2000 0 1 empty empty empty -2 -8 0 10 -262144
-260097 -1 2400 0;
#X floatatom 72 431 5 0 0 0 - - -, f 5;
#X msg 62 459 maxfreq \$1;
#X text 291 330 Maxfreq is the maximum frequency which will possibly
be reported by [helmholtz~]. Default is 2000 Set it lower if you experience
harmonic interference components such as from cellphones.;
#X text -51 359 has to be zero so it gives continuous fidelity outputs
;
#X connect 0 0 1 0;
#X connect 1 0 10 0;
#X connect 2 0 10 0;
#X connect 2 1 11 0;
#X connect 3 0 2 0;
#X connect 15 0 10 0;
#X connect 16 0 15 0;
#X connect 16 0 17 0;
#X connect 19 0 21 0;
#X connect 19 0 20 0;
#X connect 21 0 10 0;
#X connect 25 0 27 0;
#X connect 25 0 26 0;
#X connect 27 0 10 0;
#X restore -103 -6 pd user-parameters;
#N canvas 2 50 1020 535 downsample--------------------------- 0;
#X obj 29 38 inlet~;
#X obj 57 243 outlet;
#X obj 107 244 outlet;
#X obj 251 180 samplerate~;
#X floatatom 273 216 5 0 0 0 - - -, f 5;
#X obj 251 155 bng 15 250 50 0 empty empty empty 17 7 0 10 -262144
-1 -1;
#X obj 170 99 block~ 64 1 0.25;
#X obj 170 38 inlet;
#X obj 251 244 outlet;
#X obj 272 153 loadbang;
#X msg 43 154 framesize \$1;
#X msg 170 69 set 64 1 \$1;
#X obj 43 81 * 1024;
#X obj 229 38 inlet;
#X text 275 37 user parameters;
#X obj 29 185 helmholtz~;
#X obj 52 128 s \$0-reduced-framesize;
#X floatatom 61 105 5 0 0 0 - - -, f 5;
#X connect 0 0 15 0;
#X connect 3 0 4 0;
#X connect 3 0 8 0;
#X connect 5 0 3 0;
#X connect 7 0 11 0;
#X connect 7 0 5 0;
#X connect 7 0 12 0;
#X connect 9 0 3 0;
#X connect 10 0 15 0;
#X connect 11 0 6 0;
#X connect 12 0 10 0;
#X connect 12 0 16 0;
#X connect 12 0 17 0;
#X connect 13 0 15 0;
#X connect 15 1 1 0;
#X connect 15 2 2 0;
#X restore -380 15 pd downsample---------------------------;
#X obj -345 408 outlet pitch;
#X obj -242 408 outlet fidelity;
#X text -270 -38 gives a value every 6 ms;
#X obj -345 385 f;
#X obj -140 310 b;
#X floatatom 121 157 5 0 0 0 - - -, f 5;
#X obj 121 178 / 100;
#X floatatom 121 200 5 0 0 0 - - -, f 5;
#X floatatom 161 157 5 0 0 0 - - -, f 5;
#X obj 161 178 / 100;
#X floatatom 161 200 5 0 0 0 - - -, f 5;
#X text -106 312 only let pitch trough if fidelity is high;
#X text -133 238 on low notes \, be less critical of the fidelity;
#X obj -140 144 clip 60 80;
#X obj -380 84 moses 60;
#X obj 111 -40 nbx 4 14 51 200 1 1 empty empty empty 0 -8 0 10 -262144
-1 -1 60.0171 256;
#X obj 111 -10 * 1.33;
#X obj -140 170 maxlib/scale 60 80 0 1;
#X text 158 -44 lowest note you produce;
#X text 164 -11 the range above the lowest note that has flaky fidelity
;
#X obj -327 116 t f f;
#X obj -140 193 puremapping/curve_pow -0.1;
#X obj -140 261 maxlib/scale 0 1 0.8 0.94;
#X obj -214 287 moses 0.94;
#X connect 0 0 1 0;
#X connect 1 0 8 0;
#X connect 2 0 1 2;
#X connect 4 0 8 1;
#X connect 5 0 4 0;
#X connect 7 0 8 2;
#X connect 8 0 23 0;
#X connect 8 1 10 0;
#X connect 8 1 32 0;
#X connect 12 0 9 0;
#X connect 13 0 12 0;
#X connect 14 0 15 0;
#X connect 15 0 16 0;
#X connect 15 0 31 3;
#X connect 17 0 18 0;
#X connect 18 0 19 0;
#X connect 19 0 31 4;
#X connect 22 0 26 0;
#X connect 23 1 29 0;
#X connect 24 0 23 1;
#X connect 24 0 22 1;
#X connect 24 0 25 0;
#X connect 24 0 26 1;
#X connect 24 0 1 1;
#X connect 25 0 22 2;
#X connect 25 0 26 2;
#X connect 26 0 30 0;
#X connect 29 0 22 0;
#X connect 29 1 12 1;
#X connect 30 0 31 0;
#X connect 31 0 32 1;
#X connect 32 1 13 0;
#X restore 297 95 pd PitchTracker;
#X obj 116 44 delay 100;
#X msg 116 66 \; pd dsp 1;
#X connect 0 0 8 0;
#X connect 1 0 7 0;
#X connect 2 0 3 0;
#X connect 2 0 9 0;
#X connect 3 0 7 0;
#X connect 4 0 6 0;
#X connect 5 0 6 0;
#X connect 6 0 7 0;
#X connect 8 0 4 0;
#X connect 8 1 5 0;
#X connect 9 0 10 0;
